<?xml version="1.0" encoding="UTF-8" standalone="no"?>
<svg width="30px" height="44px" viewBox="0 0 30 44" version="1.1" xmlns="http://www.w3.org/2000/svg" xmlns:xlink="http://www.w3.org/1999/xlink" xmlns:sketch="http://www.bohemiancoding.com/sketch/ns">
    <!-- Generator: Sketch 3.3.3 (12081) - http://www.bohemiancoding.com/sketch -->
    <title>Shape + noun_262062_cc</title>
    <desc>Created with Sketch.</desc>
    <defs></defs>
    <g id="Page-1" stroke="none" stroke-width="1" fill="none" fill-rule="evenodd" sketch:type="MSPage">
        <g id="favicon" sketch:type="MSArtboardGroup" transform="translate(-711.000000, -323.000000)">
            <g id="Shape-+-noun_262062_cc" sketch:type="MSLayerGroup" transform="translate(712.000000, 323.000000)">
                <path d="M27.6976472,13.4809641 C27.6291784,10.6842877 26.8124789,8.54122959 25.6278214,6.7269087 C24.4914368,4.98826484 22.9969457,3.5137676 21.0675055,2.40897921 C18.7065643,1.05787892 15.3752383,0.172891362 11.8237286,0.696364395 C7.47965584,1.33745015 4.24241283,3.77646815 2.30903201,6.75100966 C1.13422608,8.55954633 0.319496938,10.7715332 0.263835274,13.529166 C0.206203285,16.3509074 1.10417863,18.5272248 2.21150095,20.4032442 C2.76417695,21.3422179 3.26168386,22.2970983 3.83800375,23.2013666 C5.56400793,25.9107975 7.42941256,28.4891191 9.0391676,31.2824213 C11.2094799,35.0479566 13.00149,39.1113799 14.0181774,43.993754 C15.4880394,36.5865624 18.8464573,31.1802332 22.4230887,25.8794662 C23.624494,24.0998507 24.8204809,22.3211993 25.7755957,20.3796252 C26.2647287,19.3852193 26.8134641,18.4534759 27.1563005,17.3400111 C27.493226,16.2395609 27.7336056,14.9130436 27.6976472,13.4809641 L27.6976472,13.4809641 Z" id="Shape" stroke="#1B4D89" fill="#FFFFFF" sketch:type="MSShapeGroup"></path>
                <g id="noun_262062_cc" transform="translate(8.166667, 2.256410)" fill="#1B4D89" sketch:type="MSShapeGroup">
                    <path d="M14.2436786,15.9528924 L10.4649591,12.5623092 C10.3182127,12.4266858 10.2448395,12.2232508 10.2448395,12.0537217 L10.2448395,10.5279592 C10.2448395,8.79876181 8.70400244,7.40862269 6.7962994,7.40862269 L5.95250767,7.40862269 C4.85190977,7.40862269 3.82468506,7.78158685 3.01757993,8.49360932 L1.07319029,10.2228068 C0.449518146,10.7992059 0.0826521775,11.57904 0.0826521775,12.39278 L0.0459655806,17.6142781 C0.0459655806,17.9872423 0.376144952,18.2923948 0.779697518,18.2923948 L0.779697518,18.2923948 C1.18325008,18.2923948 1.51342945,17.9872423 1.51342945,17.6142781 L1.55011605,12.39278 C1.55011605,11.9520042 1.73354904,11.5112284 2.100415,11.2060759 L4.04480464,9.47687845 C4.55841699,9.03610263 5.21877574,8.76485598 5.95250767,8.76485598 L6.7962994,8.76485598 C7.89689731,8.76485598 8.77737563,9.54469011 8.77737563,10.5279592 L8.77737563,27.0740053 C8.77737563,27.3791578 8.96080862,27.6504044 9.29098799,27.7521219 C9.80460034,27.8877452 10.2448395,27.5486869 10.2448395,27.1079111 L10.2448395,14.3254124 C10.2448395,14.2915066 10.2815261,14.2576008 10.3182127,14.2915066 L13.2531404,16.9361615 C13.3998868,17.0717848 13.5833198,17.1395965 13.7667528,17.1395965 C14.023559,17.1395965 14.2436786,17.037879 14.3904249,16.8005382 C14.5738579,16.5631973 14.5004847,16.1902332 14.2436786,15.9528924 L14.2436786,15.9528924 Z" id="Shape"></path>
                    <path d="M7.30991176,6.4592594 C9.25430139,6.4592594 10.7951385,5.03521445 10.7951385,3.27211119 C10.7951385,1.50900792 9.21761479,0.0849629778 7.30991176,0.0849629778 C5.40220872,0.0849629778 3.82468506,1.50900792 3.82468506,3.27211119 C3.82468506,5.03521445 5.36552212,6.4592594 7.30991176,6.4592594 L7.30991176,6.4592594 Z M7.30991176,1.44119626 C8.44719626,1.44119626 9.32767458,2.25493623 9.32767458,3.27211119 C9.32767458,4.28928615 8.41050966,5.10302612 7.30991176,5.10302612 C6.17262725,5.10302612 5.29214893,4.28928615 5.29214893,3.27211119 C5.29214893,2.25493623 6.17262725,1.44119626 7.30991176,1.44119626 L7.30991176,1.44119626 Z" id="Shape"></path>
                    <path d="M3.82468506,11.4434167 C3.53119228,11.5451342 3.3110727,11.8163809 3.3110727,12.1215333 L3.3110727,20.0894039 C3.3110727,20.5640855 3.16432631,21.072673 2.94420673,21.5134488 L0.156025371,26.7688528 C0.0092789838,27.0400994 0.0459655806,27.3452519 0.266085162,27.5486869 C0.412831549,27.6843102 0.596264533,27.7521219 0.779697518,27.7521219 C1.0365037,27.7521219 1.32999647,27.6164986 1.44005626,27.3791578 L4.22823762,22.089848 C4.59510359,21.4456372 4.77853657,20.7675205 4.77853657,20.055498 L4.77853657,12.0537217 C4.81522317,11.6468517 4.33829741,11.3077934 3.82468506,11.4434167 L3.82468506,11.4434167 Z" id="Shape"></path>
                    <path d="M4.00811804,27.8877452 C3.89805825,27.8877452 3.82468506,27.8538394 3.71462527,27.8199336 C3.38444589,27.6843102 3.2743861,27.3113461 3.42113249,27.0400994 L5.25546233,23.5477987 C5.40220872,23.2426462 5.80576129,23.1409288 6.09925406,23.2765521 C6.42943343,23.4121754 6.53949322,23.7851396 6.39274684,24.0563862 L4.55841699,27.5486869 C4.4850438,27.7521219 4.22823762,27.8877452 4.00811804,27.8877452 L4.00811804,27.8877452 Z" id="Shape"></path>
                </g>
            </g>
        </g>
    </g>
</svg>